<?xml version="1.0" encoding="utf-8"?>
<!-- Generator: Adobe Illustrator 22.0.0, SVG Export Plug-In . SVG Version: 6.00 Build 0)  -->
<svg version="1.0" xmlns="http://www.w3.org/2000/svg" xmlns:xlink="http://www.w3.org/1999/xlink" x="0px" y="0px"
	 viewBox="0 0 96 96" style="enable-background:new 0 0 96 96;" xml:space="preserve">
<style type="text/css">
	.st0{display:none;}
	.st1{display:inline;fill:#444756;}
	.st2{display:inline;}
	.st3{fill:#040006;}
	.st4{display:inline;fill:#AA6633;}
	.st5{fill:#FFFFFF;stroke:#606060;stroke-width:5;stroke-miterlimit:10;}
	.st6{display:inline;fill:#FFFFFF;stroke:#606060;stroke-width:4;stroke-miterlimit:10;}
	.st7{display:inline;fill:none;stroke:#FFFFFF;stroke-width:15;stroke-miterlimit:10;}
	.st8{fill:#A20064;}
	.st9{display:inline;fill:none;stroke:#A20064;stroke-miterlimit:10;}
	.st10{display:inline;fill:#BB2F73;}
	.st11{display:inline;fill:url(#SVGID_1_);}
	.st12{fill:#BB2F73;}
	.st13{fill:#FFFFFF;}
	.st14{fill:#464A5A;}
	.st15{fill:url(#SVGID_2_);}
	.st16{display:inline;fill:#FFFFFF;}
	.st17{stroke:#000000;stroke-width:10;stroke-miterlimit:10;}
	.st18{fill:#A2FFAC;}
	.st19{fill:#AD316C;}
	.st20{fill:url(#SVGID_3_);}
	.st21{fill:url(#SVGID_4_);}
	.st22{fill:url(#SVGID_5_);}
	.st23{fill:url(#SVGID_6_);}
	.st24{fill:url(#SVGID_7_);}
	.st25{fill:url(#SVGID_8_);}
	.st26{fill:url(#SVGID_9_);}
	.st27{fill:url(#SVGID_10_);}
	.st28{fill:url(#SVGID_11_);}
	.st29{fill:url(#SVGID_12_);}
	.st30{fill:url(#SVGID_13_);}
	.st31{fill:url(#SVGID_14_);}
	.st32{fill:url(#SVGID_15_);}
	.st33{fill:url(#SVGID_16_);}
	.st34{fill:url(#SVGID_17_);}
	.st35{fill:url(#SVGID_18_);}
	.st36{fill:url(#SVGID_19_);}
	.st37{fill:url(#SVGID_20_);}
	.st38{fill:url(#SVGID_21_);}
	.st39{fill:url(#SVGID_22_);}
	.st40{fill:url(#SVGID_23_);}
	.st41{fill:url(#SVGID_24_);}
	.st42{fill:url(#SVGID_25_);}
	.st43{fill:url(#SVGID_26_);}
	.st44{fill:url(#SVGID_27_);}
	.st45{fill:url(#SVGID_28_);}
	.st46{fill:url(#SVGID_29_);}
	.st47{fill:url(#SVGID_30_);}
	.st48{fill:url(#SVGID_31_);}
	.st49{fill:url(#SVGID_32_);}
	.st50{fill:url(#SVGID_33_);}
	.st51{fill:url(#SVGID_34_);}
	.st52{fill:url(#SVGID_35_);}
	.st53{fill:url(#SVGID_36_);}
	.st54{fill:url(#SVGID_37_);}
	.st55{fill:url(#SVGID_38_);}
	.st56{fill:url(#SVGID_39_);}
	.st57{fill:url(#SVGID_40_);}
	.st58{fill:url(#SVGID_41_);}
	.st59{fill:url(#SVGID_42_);}
	.st60{fill:url(#SVGID_43_);}
	.st61{fill:url(#SVGID_44_);}
	.st62{fill:url(#SVGID_45_);}
	.st63{fill:url(#SVGID_46_);}
	.st64{fill:url(#SVGID_47_);}
	.st65{fill:url(#SVGID_48_);}
	.st66{fill:url(#SVGID_49_);}
	.st67{fill:url(#SVGID_50_);}
	.st68{fill:url(#SVGID_51_);}
	.st69{fill:url(#SVGID_52_);}
	.st70{fill:url(#SVGID_53_);}
	.st71{fill:url(#SVGID_54_);}
	.st72{fill:url(#SVGID_55_);}
	.st73{fill:url(#SVGID_56_);}
	.st74{fill:url(#SVGID_57_);}
	.st75{fill:url(#SVGID_58_);}
	.st76{fill:url(#SVGID_59_);}
	.st77{fill:url(#SVGID_60_);}
	.st78{fill:url(#SVGID_61_);}
	.st79{fill:url(#SVGID_62_);}
	.st80{fill:url(#SVGID_63_);}
	.st81{fill:url(#SVGID_64_);}
	.st82{fill:url(#SVGID_65_);}
	.st83{fill:url(#SVGID_66_);}
	.st84{fill:url(#SVGID_67_);}
	.st85{fill:url(#SVGID_68_);}
	.st86{fill:url(#SVGID_69_);}
	.st87{fill:url(#SVGID_70_);}
	.st88{fill:url(#SVGID_71_);}
	.st89{fill:url(#SVGID_72_);}
	.st90{fill:url(#SVGID_73_);}
	.st91{fill:url(#SVGID_74_);}
	.st92{fill:url(#SVGID_75_);}
	.st93{fill:url(#SVGID_76_);}
	.st94{fill:url(#SVGID_77_);}
	.st95{fill:url(#SVGID_78_);}
	.st96{fill:url(#SVGID_79_);}
	.st97{fill-rule:evenodd;clip-rule:evenodd;fill:url(#SVGID_80_);}
	.st98{fill-rule:evenodd;clip-rule:evenodd;fill:url(#SVGID_81_);}
	.st99{fill-rule:evenodd;clip-rule:evenodd;fill:url(#SVGID_82_);}
	.st100{display:inline;fill:#001654;}
	.st101{fill:#FEFEFE;}
	.st102{fill:#F9F9F9;}
	.st103{fill:#404040;}
	.st104{display:inline;fill:#404040;}
	.st105{display:inline;fill:#464A5A;}
	.st106{display:inline;fill:#AA2F72;}
	.st107{display:inline;fill:none;stroke:#AA007C;stroke-miterlimit:10;}
	.st108{fill:#D0003A;}
	.st109{fill:none;stroke:#D0003A;stroke-width:20;stroke-miterlimit:10;}
	.st110{fill:none;stroke:#D0003A;stroke-width:6;stroke-miterlimit:10;}
	.st111{fill:none;stroke:#4070B7;stroke-width:3;stroke-linecap:round;stroke-linejoin:round;stroke-miterlimit:10;}
	.st112{display:inline;fill:none;stroke:#FFFFFF;stroke-width:20;stroke-miterlimit:10;}
	.st113{display:inline;stroke:#000000;stroke-width:11;stroke-miterlimit:10;}
	.st114{display:inline;fill:#FFFFFF;stroke:#606060;stroke-width:5;stroke-miterlimit:10;}
	.st115{fill:#606060;}
	.st116{display:inline;fill:none;stroke:#FFFFFF;stroke-width:8;stroke-miterlimit:10;}
	.st117{display:inline;fill:#0043B9;}
	.st118{fill:url(#SVGID_95_);}
	.st119{display:inline;fill:url(#SVGID_96_);}
	.st120{display:inline;fill:#D3853D;}
	.st121{display:inline;fill:#F4A664;}
	.st122{display:inline;fill:#E79D54;}
	.st123{display:inline;fill:#F9B06E;}
	.st124{display:inline;fill:#EEB580;}
	.st125{display:inline;fill:#D89F71;}
	.st126{fill:#ACACAC;}
	.st127{fill:#BC7439;}
	.st128{fill:#B6B6B6;}
	.st129{fill:url(#SVGID_97_);}
	.st130{fill:#AA6633;}
	.st131{fill:#F4A966;}
	.st132{fill:url(#SVGID_98_);}
	.st133{fill:#FDCF93;}
	.st134{fill:#FEBB6D;}
	.st135{fill:#FCD0AE;}
	.st136{fill:url(#SVGID_99_);}
	.st137{fill:url(#SVGID_100_);}
	.st138{fill:url(#SVGID_101_);}
	.st139{fill:#8E562F;}
	.st140{fill:url(#SVGID_102_);}
	.st141{fill:#EEB580;}
	.st142{fill:#C67E43;}
	.st143{fill:url(#SVGID_103_);}
	.st144{display:inline;fill:#FCD0AE;}
	.st145{fill:url(#SVGID_104_);}
	.st146{fill:url(#SVGID_105_);}
	.st147{fill:url(#SVGID_106_);}
	.st148{fill:url(#SVGID_107_);}
	.st149{fill:none;stroke:#4070B7;stroke-linecap:round;stroke-linejoin:round;stroke-miterlimit:10;}
	.st150{fill:url(#SVGID_108_);}
	.st151{fill:url(#SVGID_109_);}
	.st152{fill:url(#SVGID_110_);}
	.st153{fill:url(#SVGID_111_);}
	.st154{fill:url(#SVGID_112_);}
	.st155{fill:url(#SVGID_113_);}
	.st156{fill:url(#SVGID_114_);}
	.st157{fill:url(#SVGID_115_);}
	.st158{fill:url(#SVGID_116_);}
	.st159{fill:url(#SVGID_117_);}
	.st160{fill:url(#SVGID_118_);}
	.st161{fill:url(#SVGID_119_);}
	.st162{fill:url(#SVGID_120_);}
	.st163{fill:url(#SVGID_121_);}
	.st164{fill:url(#SVGID_122_);}
	.st165{fill:url(#SVGID_123_);}
	.st166{fill:url(#SVGID_124_);}
	.st167{fill:url(#SVGID_125_);}
	.st168{fill:url(#SVGID_126_);}
	.st169{fill:url(#SVGID_127_);}
	.st170{fill:url(#SVGID_128_);}
	.st171{fill:url(#SVGID_129_);}
	.st172{fill:url(#SVGID_130_);}
	.st173{fill:url(#SVGID_131_);}
	.st174{fill:url(#SVGID_132_);}
	.st175{fill:url(#SVGID_133_);}
	.st176{fill:url(#SVGID_134_);}
	.st177{fill:url(#SVGID_135_);}
	.st178{fill:url(#SVGID_136_);}
	.st179{fill:url(#SVGID_137_);}
	.st180{fill:url(#SVGID_138_);}
	.st181{fill:url(#SVGID_139_);}
	.st182{fill:url(#SVGID_140_);}
	.st183{fill:url(#SVGID_141_);}
	.st184{fill:url(#SVGID_142_);}
	.st185{fill:url(#SVGID_143_);}
	.st186{fill:url(#SVGID_144_);}
	.st187{fill:url(#SVGID_145_);}
	.st188{fill:url(#SVGID_146_);}
	.st189{fill:#464959;}
	.st190{display:inline;fill:#464959;}
	.st191{fill:none;stroke:#4070B7;stroke-width:0.5;stroke-linecap:round;stroke-linejoin:round;stroke-miterlimit:10;}
	.st192{display:inline;fill:#211915;}
	.st193{fill:#211915;}
	.st194{display:inline;fill:#606060;}
	.st195{fill:#454857;}
	.st196{display:inline;fill:none;stroke:#0071BC;stroke-width:3;stroke-linecap:round;stroke-linejoin:round;stroke-miterlimit:10;}
	.st197{display:inline;fill:none;stroke:#00A21F;stroke-width:58;stroke-miterlimit:10;}
	.st198{fill:#00A21F;}
	.st199{fill:none;stroke:#00A21F;stroke-width:58;stroke-miterlimit:10;}
	.st200{display:inline;fill:#454857;}
	.st201{enable-background:new    ;}
	.st202{clip-path:url(#SVGID_148_);enable-background:new    ;}
	.st203{fill:#919282;}
	.st204{fill:#969786;}
	.st205{fill:#9B9C8B;}
	.st206{fill:#A0A18F;}
	.st207{fill:#A5A694;}
	.st208{fill:#AAAB98;}
	.st209{fill:#AFB09D;}
	.st210{fill:#B4B5A1;}
	.st211{fill:#B9BAA6;}
	.st212{fill:#BEC0AA;}
	.st213{fill:#C3C5AF;}
	.st214{fill:#C8CAB3;}
	.st215{fill:#CDCFB8;}
	.st216{fill:#D2D4BC;}
	.st217{fill:#D7D9C1;}
	.st218{fill:#8C8D7D;}
	.st219{fill:#878879;}
	.st220{fill:#828374;}
	.st221{fill:#B5B6A2;}
	.st222{clip-path:url(#SVGID_150_);}
	.st223{clip-path:url(#SVGID_152_);enable-background:new    ;}
	.st224{fill:#CCCEB7;}
	.st225{clip-path:url(#SVGID_154_);}
	.st226{clip-path:url(#SVGID_156_);enable-background:new    ;}
	.st227{fill:#EDEFD5;}
	.st228{clip-path:url(#SVGID_158_);}
	.st229{display:inline;fill:#828374;}
	.st230{fill:none;stroke:#000000;stroke-width:7;stroke-miterlimit:10;}
	.st231{stroke:#000000;stroke-width:0.25;stroke-miterlimit:10;}
	.st232{fill:none;stroke:#000000;stroke-width:2;stroke-miterlimit:10;}
	.st233{fill:#444756;stroke:#444756;stroke-miterlimit:10;}
	.st234{display:inline;fill:#98D000;}
	.st235{fill:#98D000;}
	.st236{fill:#434654;stroke:#434654;stroke-miterlimit:10;}
	.st237{display:inline;fill:#434654;}
	.st238{fill:#434654;}
	.st239{fill:#444756;}
	.st240{display:inline;fill:#464A5A;stroke:#464A5A;stroke-miterlimit:10;}
	.st241{display:inline;fill:none;stroke:#464A5A;stroke-width:6;stroke-miterlimit:10;}
	.st242{display:inline;fill:none;stroke:#FFFFFF;stroke-width:5;stroke-miterlimit:10;}
	.st243{fill:#464A5A;stroke:#464A5A;stroke-width:0.5;stroke-miterlimit:10;}
	.st244{fill:none;stroke:#464A5A;stroke-width:6;stroke-miterlimit:10;}
	.st245{fill:none;stroke:#FFFFFF;stroke-width:5;stroke-miterlimit:10;}
	.st246{display:inline;fill:#464A5A;stroke:#464A5A;stroke-width:0.5;stroke-miterlimit:10;}
	.st247{display:inline;stroke:#464A5A;stroke-width:0.5;stroke-miterlimit:10;}
	.st248{fill:url(#SVGID_159_);}
	.st249{fill:url(#SVGID_160_);}
	.st250{fill:url(#SVGID_161_);}
	.st251{fill:url(#SVGID_162_);}
	.st252{stroke:#000000;stroke-width:11;stroke-miterlimit:10;}
	.st253{display:inline;fill:none;stroke:#4070B7;stroke-width:3;stroke-linecap:round;stroke-linejoin:round;stroke-miterlimit:10;}
	
		.st254{display:inline;fill:none;stroke:#FFFFFF;stroke-width:25;stroke-linecap:round;stroke-linejoin:round;stroke-miterlimit:10;}
	.st255{fill:none;stroke:#FFFFFF;stroke-width:25;stroke-linecap:round;stroke-linejoin:round;stroke-miterlimit:10;}
	.st256{fill:url(#SVGID_163_);}
	.st257{fill:url(#SVGID_164_);}
	.st258{fill:#F99FCB;}
	.st259{fill:#FDC0DD;}
	.st260{fill:#4A4B5A;}
	.st261{fill:url(#SVGID_165_);stroke:#4A4B5A;stroke-miterlimit:10;}
	.st262{fill:url(#SVGID_166_);}
	.st263{fill:url(#SVGID_167_);}
	.st264{fill:url(#SVGID_168_);}
	.st265{fill:url(#SVGID_169_);}
	.st266{fill:url(#SVGID_170_);}
</style>
<g id="Capa_1" class="st0">
	<path class="st246" d="M92.377846,12.828993c-16.944771,0-33.889549,0-50.834251,0c-2.456482,0-4.912968,0-7.369453,0
		c-4.636621,0-4.64432,7.205845,0,7.205845c10.635117,0,21.270088,0,31.905205,0
		c-0.676796,2.235626-1.353661,4.471254-2.030533,6.706881c-8.043682,0-16.087219,0-24.130901,0
		c-4.636623,0-4.644318,7.205845,0,7.205845c7.31646,0,14.632843,0,21.949299,0
		c-0.676792,2.235626-1.353661,4.471256-2.030529,6.706882c-4.725025,0-9.449974,0-14.174999,0
		c-4.636623,0-4.644245,7.205845,0,7.205845c3.997799,0,7.99567,0,11.993469,0
		c-0.676792,2.235626-1.353733,4.471252-2.030529,6.706879c-6.595169,0-13.190411,0-19.78558,0
		c-2.723598-6.903988-5.447193-13.807903-8.17079-20.711891c-1.873957-4.750387-3.747986-9.5007-5.621943-14.251015
		c-0.987299-2.502665-1.611244-5.21314-3.980133-6.70043c-4.180759-2.624785-8.473964-5.084349-12.707134-7.624251
		C1.37268,2.88775-2.254432,9.115678,1.722109,11.501573c4.115228,2.469167,8.230602,4.938405,12.34583,7.407571
		c4.857188,12.312479,9.714448,24.625029,14.571708,36.937508c-1.610804,6.071354-3.221533,12.142712-4.832264,18.214062
		c-0.000732,0.002716-0.000441,0.005501-0.001173,0.008209c-1.956568,1.813416-3.190454,4.396194-3.190454,7.267937
		c0,5.470062,4.450876,9.920937,9.920938,9.920937s9.920937-4.450874,9.920937-9.920937
		c0-0.942368-0.140446-1.851089-0.387032-2.715385c6.024811,0,12.049694,0,18.074501,0
		c-0.246586,0.864296-0.387104,1.773018-0.387104,2.715385c0,5.470062,4.450874,9.920937,9.922112,9.920937
		c5.470062,0,9.920937-4.450874,9.920937-9.920937c0-1.217834-0.231117-2.379883-0.63443-3.458817
		c2.24633-1.83606,1.521011-6.462418-2.203079-6.462418c-2.359215,0-4.718422,0-7.077637,0
		c-0.001984,0-0.003815-0.00029-0.005791-0.00029c-0.001984,0-0.003815,0.00029-0.005791,0.00029
		c-11.902798,0-23.80574,0-35.708534,0c0.852791-3.214203,1.705437-6.428406,2.558228-9.642609c14.944813,0,29.889771,0,44.834587,0
		c1.62722,0,3.000381-1.126209,3.474205-2.645164c4.339752-13.912727,8.679504-27.825453,13.019249-41.738178
		C96.553772,15.140047,94.653862,12.828993,92.377846,12.828993z M73.607788,20.034838c3.800179,0,7.600426,0,11.400604,0
		c0.824203,0,1.648407,0,2.47261,0c-0.697388,2.235626-1.39463,4.471254-2.092026,6.706881c-4.603859,0-9.207863,0-13.811714,0
		C72.254051,24.506092,72.930992,22.270464,73.607788,20.034838z M69.39566,33.947563c4.581863,0,9.163727,0,13.745598,0
		c-0.697319,2.235626-1.394714,4.471256-2.092033,6.706882c-4.56134,0-9.122681,0-13.684097,0
		C68.041924,38.418819,68.718788,36.183189,69.39566,33.947563z M65.183594,47.860291c4.539284,0,9.078636,0,13.617912,0
		c-0.697319,2.235626-1.394714,4.471252-2.092033,6.706879c-4.518753,0-9.037651,0-13.556404,0
		C63.829861,52.331543,64.506729,50.095917,65.183594,47.860291z M33.251785,81.336861
		c0,1.496529-1.218567,2.715096-2.715092,2.715096c-1.496527,0-2.715094-1.218567-2.715094-2.715096
		c0-1.496674,1.217102-2.713776,2.712162-2.715385c0.001905,0,0.003958,0,0.005863,0
		C32.034687,78.623085,33.251785,79.840187,33.251785,81.336861z M67.680107,84.051956
		c-1.497704,0-2.71627-1.218567-2.71627-2.715096c0-1.496674,1.217102-2.713776,2.713333-2.715385c0.001907,0,0.00396,0,0.005867,0
		c1.495064,0.00161,2.712158,1.218712,2.712158,2.715385C70.395195,82.833389,69.176628,84.051956,67.680107,84.051956z"/>
</g>
<g id="Capa_3" class="st0">
</g>
<g id="Capa_2" class="st0">
</g>
<g id="Capa_4">
	<path class="st260" d="M95.962891,30.652161c0-9.826538-7.966064-17.792603-17.79248-17.792603H17.792725
		C7.966074,12.859558,0,20.825632,0,30.652283l-0.000001,36.460754c0,8.39296,6.449843,15.614784,14.833504,16.009621
		c8.951022,0.421562,16.340569-6.710899,16.340569-15.569313v-0.000023c0-1.955063,1.584892-3.539955,3.539959-3.539955h26.571938
		c1.955067,0,3.539959,1.584892,3.539959,3.539955v0.000023c0,8.608513,6.978584,15.587097,15.587097,15.587097h0.000061
		C89.021484,83.140442,96,76.161865,96,67.553345L95.962891,30.652161z M71.049393,27.429407
		c1.905876-1.905876,4.996048-1.905876,6.901924,0c1.90564,1.905874,1.90564,4.995867,0,6.901743
		c-1.905876,1.905872-4.996048,1.905872-6.901924,0C69.143517,32.425274,69.143517,29.335281,71.049393,27.429407z
		 M32.026855,43.074585c-1.705078,0-3.4104,0-5.115479,0c0,1.641785,0,3.28363,0,4.925415
		c0,0.649658-0.157471,1.248108-0.428467,1.776306c-0.665283,1.296631-2.033691,2.15802-3.574951,2.227051
		C20.746094,52.100159,18.904785,50.094055,18.904785,48c0-0.770508,0-1.541016,0-2.311584c0-0.871277,0-1.742554,0-2.613831
		c-1.705078,0-3.4104,0-5.115479,0c-2.244385,0-3.90625-1.834351-4.003418-4.003357
		c-0.096924-2.161987,1.909424-4.003357,4.003418-4.003357c1.705078,0,3.4104,0,5.115479,0c0-1.768433,0-3.536865,0-5.305298
		c0-2.244385,1.834229-3.90625,4.003174-4.003357c2.162109-0.096863,4.003418,1.909241,4.003418,4.003357
		c0,1.768433,0,3.536865,0,5.305298c1.705078,0,3.4104,0,5.115479,0c2.244141,0,3.906006,1.834351,4.003174,4.003357
		C36.126953,41.233215,34.12085,43.074585,32.026855,43.074585z M62.929405,42.45084
		c-1.905872-1.905872-1.905872-4.995865,0-6.901741c1.905876-1.905876,4.996048-1.905876,6.901924,0
		c1.905632,1.905876,1.905632,4.995869,0,6.901741C67.925453,44.356716,64.835281,44.356716,62.929405,42.45084z
		 M77.950371,50.570534c-1.90564,1.905876-4.995811,1.905876-6.901688,0c-0.756775-0.756893-1.207909-1.701092-1.3638-2.68314
		c-0.236435-1.490818,0.214943-3.069618,1.3638-4.218601c1.905876-1.905876,4.996048-1.905876,6.901688,0
		c0.187538,0.187599,0.351463,0.389431,0.502151,0.597755C79.83239,46.174313,79.668701,48.852257,77.950371,50.570534z
		 M86.070595,42.45084c-1.905876,1.905876-4.995811,1.905876-6.901688,0c-1.905869-1.905872-1.905869-4.995865,0-6.901741
		c1.905876-1.905876,4.995811-1.905876,6.901688,0S87.976471,40.544968,86.070595,42.45084z"/>
</g>
</svg>
